<svg xmlns="http://www.w3.org/2000/svg" viewBox="0 0 24 24" fill="none" stroke="#295214" stroke-linecap="round" stroke-linejoin="round" id="Sprout--Streamline-Lucide" height="24" width="24">
  <desc>
    Sprout Streamline Icon: https://streamlinehq.com
  </desc>
  <path d="M7 20h10" stroke-width="2"></path>
  <path d="M10 20c5.5 -2.5 0.8 -6.4 3 -10" stroke-width="2"></path>
  <path d="M9.5 9.4c1.1 0.8 1.8 2.2 2.3 3.7 -2 0.4 -3.5 0.4 -4.8 -0.3 -1.2 -0.6 -2.3 -1.9 -3 -4.2 2.8 -0.5 4.4 0 5.5 0.8z" stroke-width="2"></path>
  <path d="M14.1 6a7 7 0 0 0 -1.1 4c1.9 -0.1 3.3 -0.6 4.3 -1.4 1 -1 1.6 -2.3 1.7 -4.6 -2.7 0.1 -4 1 -4.9 2z" stroke-width="2"></path>
</svg>